<svg width="373" height="47" viewBox="0 0 373 47" fill="none" xmlns="http://www.w3.org/2000/svg">
<path d="M12.2697 47H0.178741L15.8833 0.454544H30.8606L46.5651 47H34.4742L23.5424 12.1818H23.1787L12.2697 47ZM10.656 28.6818H35.9287V37.2273H10.656V28.6818ZM87.0965 47V0.454544H106.324C109.809 0.454544 112.816 1.08333 115.346 2.34091C117.892 3.58333 119.854 5.37121 121.233 7.70454C122.612 10.0227 123.301 12.7727 123.301 15.9545C123.301 19.1818 122.596 21.9242 121.187 24.1818C119.778 26.4242 117.778 28.1364 115.187 29.3182C112.596 30.4848 109.528 31.0682 105.983 31.0682H93.8237V22.2045H103.892C105.589 22.2045 107.006 21.9848 108.142 21.5455C109.293 21.0909 110.165 20.4091 110.756 19.5C111.346 18.5758 111.642 17.3939 111.642 15.9545C111.642 14.5151 111.346 13.3258 110.756 12.3864C110.165 11.4318 109.293 10.7197 108.142 10.25C106.99 9.76515 105.574 9.52273 103.892 9.52273H98.3465V47H87.0965ZM113.301 25.7273L124.892 47H112.619L101.256 25.7273H113.301ZM204.605 0.454544V47H195.06L176.537 20.1364H176.241V47H164.991V0.454544H174.673L192.991 27.2727H193.378V0.454544H204.605ZM257.267 47H245.176L260.881 0.454544H275.858L291.563 47H279.472L268.54 12.1818H268.176L257.267 47ZM255.654 28.6818H280.926V37.2273H255.654V28.6818ZM349.299 47H332.094V0.454544H349.276C354.018 0.454544 358.102 1.38636 361.526 3.25C364.965 5.09848 367.617 7.76515 369.48 11.25C371.344 14.7197 372.276 18.8712 372.276 23.7045C372.276 28.553 371.344 32.7197 369.48 36.2045C367.632 39.6894 364.988 42.3636 361.549 44.2273C358.109 46.0758 354.026 47 349.299 47ZM343.344 37.4091H348.867C351.473 37.4091 353.677 36.9697 355.48 36.0909C357.299 35.197 358.67 33.75 359.594 31.75C360.533 29.7348 361.003 27.053 361.003 23.7045C361.003 20.3561 360.533 17.6894 359.594 15.7045C358.655 13.7045 357.268 12.2652 355.435 11.3864C353.617 10.4924 351.374 10.0455 348.708 10.0455H343.344V37.4091Z" fill="#E3839C"/>
</svg>
