<svg width="559" height="70" viewBox="0 0 559 70" fill="none" xmlns="http://www.w3.org/2000/svg">
<path d="M18.9045 70H0.768127L24.3249 0.181816H46.7909L70.3477 70H52.2113L35.8136 17.7727H35.2681L18.9045 70ZM16.484 42.5227H54.3931V55.3409H16.484V42.5227ZM131.145 70V0.181816H159.986C165.213 0.181816 169.724 1.125 173.52 3.01136C177.338 4.875 180.281 7.55682 182.349 11.0568C184.417 14.5341 185.452 18.6591 185.452 23.4318C185.452 28.2727 184.395 32.3864 182.281 35.7727C180.167 39.1364 177.167 41.7045 173.281 43.4773C169.395 45.2273 164.792 46.1023 159.474 46.1023H141.236V32.8068H156.338C158.883 32.8068 161.008 32.4773 162.713 31.8182C164.44 31.1364 165.747 30.1136 166.633 28.75C167.52 27.3636 167.963 25.5909 167.963 23.4318C167.963 21.2727 167.52 19.4886 166.633 18.0795C165.747 16.6477 164.44 15.5795 162.713 14.875C160.986 14.1477 158.861 13.7841 156.338 13.7841H148.02V70H131.145ZM170.452 38.0909L187.838 70H169.429L152.383 38.0909H170.452ZM307.408 0.181816V70H293.089L265.305 29.7045H264.862V70H247.987V0.181816H262.51L289.987 40.4091H290.567V0.181816H307.408ZM386.401 70H368.264L391.821 0.181816H414.287L437.844 70H419.708L403.31 17.7727H402.764L386.401 70ZM383.98 42.5227H421.889V55.3409H383.98V42.5227ZM524.448 70H498.641V0.181816H524.414C531.527 0.181816 537.652 1.57954 542.789 4.375C547.948 7.14772 551.925 11.1477 554.721 16.375C557.516 21.5795 558.914 27.8068 558.914 35.0568C558.914 42.3295 557.516 48.5795 554.721 53.8068C551.948 59.0341 547.982 63.0455 542.823 65.8409C537.664 68.6136 531.539 70 524.448 70ZM515.516 55.6136H523.8C527.709 55.6136 531.016 54.9545 533.721 53.6364C536.448 52.2955 538.505 50.125 539.891 47.125C541.3 44.1023 542.005 40.0795 542.005 35.0568C542.005 30.0341 541.3 26.0341 539.891 23.0568C538.482 20.0568 536.402 17.8977 533.652 16.5795C530.925 15.2386 527.561 14.5682 523.561 14.5682H515.516V55.6136Z" fill="#0C1F36"/>
</svg>
