<svg width="77" height="77" viewBox="0 0 77 77" fill="none" xmlns="http://www.w3.org/2000/svg">
<path d="M6.99999 -7.55324e-05C3.13399 -7.51952e-05 -1.416e-05 3.13393 -1.44972e-05 6.99992L-1.38229e-05 69.9999C-1.38229e-05 73.8659 3.13399 76.9999 6.99999 76.9999C10.866 76.9999 14 73.8659 14 69.9999L14 13.9999L70 13.9999C73.866 13.9999 77 10.8659 77 6.99992C77 3.13393 73.866 -7.4858e-05 70 -7.4858e-05L6.99999 -7.55324e-05ZM12.6568 2.75728L11.9497 2.05018L2.05024 11.9497L2.75734 12.6568L12.6568 2.75728Z" fill="white"/>
</svg>
