<svg width="260" height="166" viewBox="0 0 260 166" fill="none" xmlns="http://www.w3.org/2000/svg">
<path d="M7.55887 58.1063C-6.44589 49.8341 2.5417 28.3532 18.2646 32.5191L45.3653 39.6995C53.0703 41.741 60.9225 36.9469 62.6271 29.1605L66.5002 11.4683C69.2319 -1.00981 85.8772 -3.61166 92.2864 7.43757L105.374 29.9998C107.486 33.6399 111.123 36.1372 115.278 36.8003L247.403 57.8815C264.433 60.5987 262.442 85.7066 245.197 85.7066L130.519 85.7066C122.787 85.7066 116.519 91.9746 116.519 99.7066L116.519 151.822C116.519 167.592 94.4956 171.324 89.3007 156.434L68.9959 98.2358C67.9062 95.1124 65.7457 92.4758 62.8975 90.7934L7.55887 58.1063Z" fill="url(#paint0_linear_1_19)"/>
<defs>
<linearGradient id="paint0_linear_1_19" x1="48.5541" y1="77.9028" x2="222.541" y2="50.7068" gradientUnits="userSpaceOnUse">
<stop stop-color="#E3839C"/>
<stop offset="1" stop-color="#0051B4"/>
</linearGradient>
</defs>
</svg>
