<svg width="101" height="135" viewBox="0 0 101 135" fill="none" xmlns="http://www.w3.org/2000/svg">
<path d="M3.84743 16.4536C1.582 0.346751 23.9797 -6.0211 30.5267 8.86848L41.8116 34.5328C45.02 41.8294 53.6642 44.9788 60.8144 41.4563L77.0611 33.4524C88.5196 27.8074 100.933 39.1982 96.291 51.0985L86.6055 75.9302C85.1962 79.5434 85.3488 83.5793 87.0271 87.0757L98.6972 111.389C104.164 122.779 92.9387 135.012 81.1222 130.541L55.898 120.999C52.2705 119.627 48.2364 119.821 44.7573 121.534L20.8476 133.314C9.38905 138.959 -3.02405 127.568 1.61767 115.667L12.182 88.5828C13.0544 86.3462 13.3369 83.9228 13.0026 81.5455L3.84743 16.4536Z" fill="url(#paint0_linear_1_57)"/>
<defs>
<linearGradient id="paint0_linear_1_57" x1="-15.9206" y1="23.8513" x2="113.829" y2="142.914" gradientUnits="userSpaceOnUse">
<stop stop-color="#E3839C"/>
<stop offset="1" stop-color="#0051B4"/>
</linearGradient>
</defs>
</svg>
